<?xml version="1.0" standalone="no"?>
<svg viewBox="0 0 200 200" xmlns="http://www.w3.org/2000/svg">
  <path fill="#FF0066" d="M21.7,-33.6C28.4,-33.8,34,-28.4,40.5,-21.8C46.9,-15.3,54.2,-7.6,51.1,-1.8C48,4.1,34.5,8.1,30.1,18.1C25.6,28.2,30.2,44.2,26.7,44.5C23.2,44.9,11.6,29.6,1,27.8C-9.5,26.1,-19.1,37.8,-29.7,41.6C-40.4,45.4,-52.2,41.2,-60.8,32.9C-69.5,24.6,-74.9,12.3,-78.5,-2C-82,-16.4,-83.5,-32.8,-77.3,-45.2C-71.1,-57.6,-57.1,-66.1,-42.9,-61.6C-28.7,-57,-14.4,-39.3,-3.4,-33.4C7.6,-27.5,15.1,-33.4,21.7,-33.6Z" transform="translate(100 100)" />
</svg>
